<?xml version="1.0" encoding="UTF-8"?>
<svg width="32px" height="32px" viewBox="0 0 32 32" version="1.1" xmlns="http://www.w3.org/2000/svg" xmlns:xlink="http://www.w3.org/1999/xlink">
    <!-- Generator: Sketch 43.2 (39069) - http://www.bohemiancoding.com/sketch -->
    <title>facebook-icon</title>
    <desc>Created with Sketch.</desc>
    <defs></defs>
    <g id="Page-1" stroke="none" stroke-width="1" fill="none" fill-rule="evenodd">
        <g id="facebook-icon" fill-rule="nonzero" fill="#3B5998">
            <path d="M15.1534156,9.72128313 C15.6993472,9.20144862 16.4758708,9.0258711 17.2083896,9.00398762 C17.9831123,8.99702161 18.7575291,9.0012352 19.5322517,9.00154102 C19.53531,9.81880732 19.5355818,10.6363794 19.5319459,11.4536118 C19.0312764,11.4527283 18.5302671,11.4548351 18.0295977,11.4527283 C17.7121174,11.4329516 17.3861079,11.6736019 17.3284089,11.9883297 C17.3207973,12.5351788 17.3256565,13.0823337 17.3259623,13.6292167 C18.0602821,13.632241 18.7946019,13.6282992 19.5288877,13.6310517 C19.4751304,14.4221529 19.3769946,15.2096523 19.2618685,15.9940933 C18.6132477,16.0001759 17.9642531,15.9934817 17.3156662,15.9974574 C17.3098895,18.3307321 17.3186905,20.6640068 17.3111128,22.9972816 C16.3476962,23.0012233 15.3837019,22.9954466 14.4203192,23 C14.4020716,20.6664195 14.4218143,18.3316496 14.4102949,15.9977632 C13.9402759,15.99287 13.469985,16.0011273 13,15.9938215 C13.001801,15.2093804 13.0006116,14.4249733 13.0008835,13.6408041 C13.4705627,13.6350614 13.9405817,13.6420274 14.4102949,13.637474 C14.4245668,12.8748824 14.3959891,12.1114073 14.4251784,11.3494614 C14.4722754,10.7460347 14.7022558,10.1380886 15.1534156,9.72128313 Z" id="Shape"></path>
        </g>
    </g>
</svg>