<?xml version="1.0" encoding="UTF-8"?>
<svg width="32px" height="32px" viewBox="0 0 32 32" version="1.1" xmlns="http://www.w3.org/2000/svg" xmlns:xlink="http://www.w3.org/1999/xlink">
    <!-- Generator: Sketch 43.2 (39069) - http://www.bohemiancoding.com/sketch -->
    <title>linkedin-icon</title>
    <desc>Created with Sketch.</desc>
    <defs></defs>
    <g id="Page-1" stroke="none" stroke-width="1" fill="none" fill-rule="evenodd">
        <g id="linkedin-icon" fill-rule="nonzero" fill="#0077B5">
            <path d="M22.9713179,17.1851276 L22.9713179,22.350413 L19.9768121,22.350413 L19.9768121,17.5310673 C19.9768121,16.3204084 19.5436891,15.494181 18.4597773,15.494181 C17.632348,15.494181 17.1399443,16.0509977 16.9233179,16.5896241 C16.8443202,16.782181 16.8239861,17.0501949 16.8239861,17.3197355 L16.8239861,22.350413 L13.8284733,22.350413 C13.8284733,22.350413 13.8688167,14.1880232 13.8284733,13.3423387 L16.8236937,13.3423387 L16.8236937,14.6191972 C16.8176195,14.6287471 16.8097262,14.6390441 16.8040093,14.6483016 L16.8236937,14.6483016 L16.8236937,14.6191972 C17.2216381,14.0062831 17.9323248,13.1307146 19.5230626,13.1307146 C21.4938794,13.1306821 22.9713179,14.4181949 22.9713179,17.1851276 Z M10.6950394,9 C9.67027842,9 9,9.67216241 9,10.5560789 C9,11.4207332 9.65088631,12.1132947 10.6552807,12.1132947 L10.67529,12.1132947 C11.7198979,12.1132947 12.3695499,11.4208631 12.3695499,10.5560789 C12.3498654,9.67216241 11.7198979,9 10.6950394,9 Z M9.17790719,22.350413 L12.1722831,22.350413 L12.1722831,13.3423387 L9.17790719,13.3423387 L9.17790719,22.350413 Z" id="LinkedIn"></path>
        </g>
    </g>
</svg>