<?xml version="1.0" encoding="UTF-8"?>
<svg width="32px" height="32px" viewBox="0 0 32 32" version="1.1" xmlns="http://www.w3.org/2000/svg" xmlns:xlink="http://www.w3.org/1999/xlink">
    <!-- Generator: Sketch 43.2 (39069) - http://www.bohemiancoding.com/sketch -->
    <title>twitter-icon</title>
    <desc>Created with Sketch.</desc>
    <defs></defs>
    <g id="Page-1" stroke="none" stroke-width="1" fill="none" fill-rule="evenodd">
        <g id="twitter-icon" fill-rule="nonzero" fill="#1DA1F2">
            <path d="M13.40272,21.3758227 C18.68576,21.3758227 21.57536,16.9988627 21.57536,13.2031827 C21.57536,13.0788627 21.57536,12.9551027 21.56696,12.8319027 C22.1291056,12.4252927 22.6143591,11.9218351 23,11.3451027 C22.4757723,11.5773917 21.9196644,11.7297267 21.35024,11.7970227 C21.9498566,11.4380526 22.3986292,10.873455 22.61304,10.2083027 C22.0492082,10.5428776 21.4323618,10.7786694 20.78912,10.9055027 C19.8987664,9.95876345 18.4840028,9.7270457 17.3381476,10.3402834 C16.1922923,10.9535211 15.600314,12.2592051 15.89416,13.5251827 C13.5846616,13.4094024 11.4329064,12.3185637 9.9744,10.5241427 C9.21202874,11.8365837 9.60143321,13.515584 10.86368,14.3584627 C10.4065751,14.3449149 9.95943645,14.221606 9.56,13.9989427 L9.56,14.0353427 C9.56037415,15.4026347 10.5241808,16.5802823 11.8644,16.8510227 C11.441527,16.9663491 10.9978451,16.9832075 10.56744,16.9003027 C10.9437308,18.0703794 12.0220818,18.8719416 13.25096,18.8950227 C12.2338516,19.6943845 10.9773933,20.1283262 9.68376,20.1270227 C9.455226,20.1265839 9.22691428,20.1127469 9,20.0855827 C10.3135561,20.9285375 11.8419515,21.3756641 13.40272,21.3735827" id="Shape"></path>
        </g>
    </g>
</svg>